<svg width="30" height="30" viewBox="0 0 30 30" fill="none" xmlns="http://www.w3.org/2000/svg">
<g id="clarity:plus-line">
<path id="Vector" d="M19.3204 9.89335L14.9992 14.2146L10.678 9.89335C10.5738 9.78916 10.4325 9.73063 10.2851 9.73063C10.1378 9.73063 9.99648 9.78916 9.8923 9.89335C9.78811 9.99754 9.72958 10.1388 9.72958 10.2862C9.72958 10.4335 9.78811 10.5748 9.8923 10.679L14.2135 15.0002L9.8923 19.3214C9.78811 19.4256 9.72958 19.5669 9.72958 19.7143C9.72958 19.8616 9.78811 20.0029 9.8923 20.1071C9.94141 20.1601 10.0013 20.202 10.068 20.2298C10.1346 20.2577 10.2065 20.271 10.2787 20.2688C10.3509 20.2665 10.4218 20.2488 10.4866 20.2169C10.5514 20.1849 10.6087 20.1395 10.6544 20.0835L14.9756 15.7623L19.3204 20.1071C19.4246 20.2113 19.5659 20.2698 19.7132 20.2698C19.8606 20.2698 20.0019 20.2113 20.1061 20.1071C20.2102 20.0029 20.2688 19.8616 20.2688 19.7143C20.2688 19.5669 20.2102 19.4256 20.1061 19.3214L15.7849 15.0002L20.1061 10.679C20.2102 10.5748 20.2688 10.4335 20.2688 10.2862C20.2688 10.1388 20.2102 9.99754 20.1061 9.89335C20.0019 9.78916 19.8606 9.73063 19.7132 9.73063C19.5659 9.73063 19.4246 9.78916 19.3204 9.89335Z" fill="#514A7E"/>
</g>
</svg>
